<!DOCTYPE svg PUBLIC "-//W3C//DTD SVG 1.1//EN" "http://www.w3.org/Graphics/SVG/1.1/DTD/svg11.dtd">
<!-- Uploaded to: SVG Find, www.svgrepo.com, Transformed by: SVG Find Mixer Tools -->
<svg fill="#414042" width="800px" height="800px" version="1.1" viewBox="144 144 512 512" xmlns="http://www.w3.org/2000/svg" stroke="#414042">
<g id="SVGRepo_bgCarrier" stroke-width="0"/>
<g id="SVGRepo_tracerCarrier" stroke-linecap="round" stroke-linejoin="round"/>
<g id="SVGRepo_iconCarrier"> <g> <path d="m557.68 180.07h-315.36c-16.504 0.019531-32.324 6.582-43.992 18.254-11.672 11.668-18.234 27.488-18.254 43.992v315.36c0.019531 16.504 6.582 32.324 18.254 43.996 11.668 11.668 27.488 18.23 43.992 18.25h315.36c16.504-0.019531 32.324-6.582 43.996-18.25 11.668-11.672 18.23-27.492 18.25-43.996v-315.36c-0.019531-16.504-6.582-32.324-18.25-43.992-11.672-11.672-27.492-18.234-43.996-18.254zm46.5 62.246 0.003907 149.8h-196.31v-196.31h149.8c12.332 0.015625 24.148 4.918 32.867 13.637s13.621 20.539 13.637 32.867zm-361.86-46.504h149.8v196.31h-196.31v-149.8c0.015625-12.328 4.918-24.148 13.637-32.867s20.539-13.621 32.867-13.637zm-46.504 361.86v-149.8h196.31v196.31h-149.8c-12.328-0.015626-24.148-4.918-32.867-13.637s-13.621-20.535-13.637-32.867zm361.86 46.504h-149.8v-196.31h196.31v149.8c-0.015626 12.332-4.918 24.148-13.637 32.867s-20.535 13.621-32.867 13.637z"/> <path d="m329.11 287.21h-27.02v-27.02c0-4.3477-3.5234-7.8711-7.8711-7.8711s-7.8711 3.5234-7.8711 7.8711v27.02h-27.02c-4.3477 0-7.8711 3.5234-7.8711 7.8711 0 4.3477 3.5234 7.8711 7.8711 7.8711h27.02v27.016c0 4.3477 3.5234 7.8711 7.8711 7.8711s7.8711-3.5234 7.8711-7.8711v-27.016h27.02c4.3477 0 7.8711-3.5234 7.8711-7.8711 0-4.3477-3.5234-7.8711-7.8711-7.8711z"/> <path d="m305.35 506.27 19.102-19.102c3.0742-3.0742 3.0742-8.0586 0-11.133-3.0742-3.0742-8.0586-3.0742-11.133 0l-19.102 19.105-19.105-19.105c-3.0742-3.0742-8.0547-3.0742-11.129 0-3.0742 3.0742-3.0742 8.0586 0 11.133l19.102 19.102-19.102 19.102v0.003906c-3.0742 3.0742-3.0742 8.0586 0 11.133 3.0742 3.0703 8.0547 3.0703 11.129 0l19.102-19.102 19.102 19.102h0.003906c3.0742 3.0703 8.0586 3.0703 11.133 0 3.0742-3.0742 3.0742-8.0586 0-11.133z"/> <path d="m541.65 302.96h-69.781c-4.3438 0-7.8711-3.5234-7.8711-7.8711 0-4.3477 3.5273-7.8711 7.8711-7.8711h69.781c4.3477 0 7.8711 3.5234 7.8711 7.8711 0 4.3477-3.5234 7.8711-7.8711 7.8711z"/> <path d="m541.65 496.47h-69.781c-4.3438 0-7.8711-3.5234-7.8711-7.8711 0-4.3477 3.5273-7.8711 7.8711-7.8711h69.781c4.3477 0 7.8711 3.5234 7.8711 7.8711 0 4.3477-3.5234 7.8711-7.8711 7.8711z"/> <path d="m541.65 531.81h-69.781c-4.3438 0-7.8711-3.5234-7.8711-7.8711s3.5273-7.8711 7.8711-7.8711h69.781c4.3477 0 7.8711 3.5234 7.8711 7.8711s-3.5234 7.8711-7.8711 7.8711z"/> </g> </g>
</svg>