<?xml version="1.0" encoding="utf-8"?>
<!-- Generator: Adobe Illustrator 16.0.0, SVG Export Plug-In . SVG Version: 6.00 Build 0)  -->
<!DOCTYPE svg PUBLIC "-//W3C//DTD SVG 1.1//EN" "http://www.w3.org/Graphics/SVG/1.1/DTD/svg11.dtd">
<svg version="1.1" id="Layer_1" xmlns="http://www.w3.org/2000/svg" xmlns:xlink="http://www.w3.org/1999/xlink" x="0px" y="0px"
	 width="595.276px" height="647px" viewBox="0 0 595.276 647" enable-background="new 0 0 0 0" xml:space="preserve">
<g>
	<path d="M359.763,265.939c-17.806-10.47-36.78-17.657-57.573-18.679c-21.591-1.06-41.566,5.136-60.418,15.216
		c-30.986,16.566-55.989,40.209-78.55,66.725c-2.154,2.532-2.458,4.548-0.188,7.232c20.343,24.044,42.869,45.623,69.961,62.017
		c19.825,11.998,41,19.906,61.439,20.257c20.396,0.014,41.031-5.716,57.81-14.635c31.672-16.831,56.955-41.066,79.879-68.128
		c1.76-2.076,2.113-3.555,0.189-5.831C411.259,305.172,388.114,282.609,359.763,265.939z M296.52,404.132
		c-39.456-0.459-70.694-32.966-70.302-73.151c0.372-38.027,33.235-69.938,71.657-69.583c3.873,0.037,7.671,0.396,11.373,1.033
		c-8.357,6.51-13.74,16.662-13.74,28.08c0,19.649,15.931,35.581,35.581,35.581c14.12,0,26.319-8.226,32.068-20.145
		c3.414,8.412,5.272,17.604,5.195,27.223C368.035,372.717,335.773,404.59,296.52,404.132z"/>
	<path d="M540.037,155.435L324.53,30.999c-14.794-8.544-38.981-8.544-53.784,0L55.21,155.435
		c-14.765,8.544-26.864,29.497-26.864,46.573v248.868c0,17.063,12.099,38.042,26.864,46.577l215.536,124.432
		c14.803,8.534,38.99,8.534,53.784,0l215.507-124.432c14.794-8.535,26.892-29.514,26.892-46.577V202.008
		C566.929,184.932,554.831,163.979,540.037,155.435z M486.543,336.736c-30.274,44.243-67.048,81.521-114.868,106.842
		c-23.554,12.472-48.696,19.711-75.462,19.401c-27.263-0.312-52.715-8.245-76.454-21.387
		c-46.193-25.575-82.22-62.054-111.908-105.249c-1.786-2.597-1.601-4.5,0.12-7c29.703-43.182,65.731-79.672,111.97-105.172
		c15.409-8.5,31.519-14.694,48.308-18.158L295.231,233l27.73-27.73c22.738,4.073,43.845,13.055,63.797,25.49
		c40.651,25.336,73.134,59.04,99.904,98.514C488.527,332.025,488.359,334.084,486.543,336.736z"/>
</g>
</svg>
