<?xml version="1.0" encoding="UTF-8" standalone="no" ?>
<!DOCTYPE svg PUBLIC "-//W3C//DTD SVG 1.1//EN" "http://www.w3.org/Graphics/SVG/1.1/DTD/svg11.dtd">
<svg xmlns="http://www.w3.org/2000/svg" xmlns:xlink="http://www.w3.org/1999/xlink" version="1.1" width="100" height="100" viewBox="0 0 1080 1080" xml:space="preserve">
<desc>Created with Fabric.js 5.2.4</desc>
<defs>
</defs>
<g transform="matrix(1 0 0 1 540 540)" id="fe679652-b5e1-4584-92c4-eac5f79ee90a"  >
<rect style="stroke: none; stroke-width: 1; stroke-dasharray: none; stroke-linecap: butt; stroke-dashoffset: 0; stroke-linejoin: miter; stroke-miterlimit: 1; fill: rgb(255,255,255); fill-rule: nonzero; opacity: 0; visibility: hidden;" vector-effect="non-scaling-stroke"  x="-540" y="-540" rx="0" ry="0" width="108" height="108" />
</g>
<g transform="matrix(1 0 0 1 540 540)" id="911a0d3f-8a91-4071-8022-1d757372c05f"  >
</g>
<g transform="matrix(1 0 0 1 539.9 546.49)"  >
<path style="stroke: none; stroke-width: 1; stroke-dasharray: none; stroke-linecap: butt; stroke-dashoffset: 0; stroke-linejoin: miter; stroke-miterlimit: 4; fill: rgb(65,64,66); fill-rule: nonzero; opacity: 1;" vector-effect="non-scaling-stroke"  transform=" translate(-297.54, -332.92)" d="M 359.763 265.939 C 341.957 255.46900000000002 322.98299999999995 248.282 302.19 247.26000000000002 C 280.599 246.20000000000002 260.624 252.39600000000002 241.772 262.476 C 210.786 279.042 185.783 302.685 163.22199999999998 329.201 C 161.06799999999998 331.733 160.76399999999998 333.749 163.034 336.43300000000005 C 183.37699999999998 360.47700000000003 205.903 382.05600000000004 232.995 398.45000000000005 C 252.82 410.44800000000004 273.995 418.35600000000005 294.434 418.70700000000005 C 314.83000000000004 418.72100000000006 335.46500000000003 412.99100000000004 352.244 404.07200000000006 C 383.91600000000005 387.24100000000004 409.199 363.0060000000001 432.12300000000005 335.9440000000001 C 433.88300000000004 333.86800000000005 434.23600000000005 332.38900000000007 432.31200000000007 330.11300000000006 C 411.259 305.172 388.114 282.609 359.763 265.939 z M 296.52 404.132 C 257.06399999999996 403.673 225.82599999999996 371.166 226.21799999999996 330.981 C 226.58999999999997 292.954 259.453 261.043 297.87499999999994 261.398 C 301.74799999999993 261.435 305.54599999999994 261.79400000000004 309.24799999999993 262.43100000000004 C 300.89099999999996 268.94100000000003 295.5079999999999 279.093 295.5079999999999 290.511 C 295.5079999999999 310.16 311.4389999999999 326.09200000000004 331.08899999999994 326.09200000000004 C 345.20899999999995 326.09200000000004 357.40799999999996 317.86600000000004 363.1569999999999 305.94700000000006 C 366.5709999999999 314.35900000000004 368.4289999999999 323.55100000000004 368.3519999999999 333.1700000000001 C 368.035 372.717 335.773 404.59 296.52 404.132 z" stroke-linecap="round" />
</g>
<g transform="matrix(1 0 0 1 543 543)"  >
<path style="stroke: rgb(65,64,66); stroke-width: 7; stroke-dasharray: none; stroke-linecap: butt; stroke-dashoffset: 0; stroke-linejoin: miter; stroke-miterlimit: 4; fill: rgb(0,0,0); fill-opacity: 0; fill-rule: nonzero; opacity: 1;" vector-effect="non-scaling-stroke"  transform=" translate(-297.64, -326.44)" d="M 540.037 155.435 L 324.53 30.999 C 309.736 22.455 285.549 22.455 270.746 30.999 L 55.21 155.435 C 40.445 163.979 28.346 184.93200000000002 28.346 202.008 L 28.346 450.876 C 28.346 467.93899999999996 40.445 488.918 55.21 497.453 L 270.746 621.885 C 285.549 630.419 309.736 630.419 324.53 621.885 L 540.037 497.453 C 554.831 488.91799999999995 566.9290000000001 467.93899999999996 566.9290000000001 450.876 L 566.9290000000001 202.008 C 566.929 184.932 554.831 163.979 540.037 155.435 z M 486.543 336.736 C 456.269 380.979 419.495 418.257 371.675 443.578 C 348.12100000000004 456.04999999999995 322.97900000000004 463.289 296.213 462.979 C 268.95000000000005 462.667 243.49800000000002 454.734 219.75900000000001 441.592 C 173.56600000000003 416.017 137.53900000000002 379.538 107.85100000000001 336.34299999999996 C 106.06500000000001 333.746 106.25000000000001 331.84299999999996 107.97100000000002 329.34299999999996 C 137.674 286.16099999999994 173.702 249.67099999999996 219.94100000000003 224.17099999999996 C 235.35000000000002 215.67099999999996 251.46000000000004 209.47699999999998 268.249 206.01299999999998 L 295.231 233 L 322.961 205.27 C 345.699 209.34300000000002 366.80600000000004 218.32500000000002 386.75800000000004 230.76000000000002 C 427.40900000000005 256.096 459.89200000000005 289.8 486.66200000000003 329.274 C 488.527 332.025 488.359 334.084 486.543 336.736 z" stroke-linecap="round" />
</g>
</svg>