<?xml version="1.0" encoding="UTF-8" standalone="no" ?>
<!DOCTYPE svg PUBLIC "-//W3C//DTD SVG 1.1//EN" "http://www.w3.org/Graphics/SVG/1.1/DTD/svg11.dtd">
<svg xmlns="http://www.w3.org/2000/svg" xmlns:xlink="http://www.w3.org/1999/xlink" version="1.1" width="1000px" height="1000px" viewBox="0 0 1080 1080" xml:space="preserve">

<desc>Created with Fabric.js 5.2.4</desc>
<defs>
</defs>
<rect x="0" y="0" width="150%" height="150%" fill="transparent"></rect>
<g transform="matrix(1 0 0 1 540 540)" id="911a0d3f-8a91-4071-8022-1d757372c05f"  >
</g>
<g transform="matrix(1 0 0 1 540 540)" id="fe679652-b5e1-4584-92c4-eac5f79ee90a"  >
<rect style="stroke: none; stroke-width: 1; stroke-dasharray: none; stroke-linecap: butt; stroke-dashoffset: 0; stroke-linejoin: miter; stroke-miterlimit: 4; fill: rgb(255,255,255); fill-rule: nonzero; opacity: 1; visibility: hidden;" vector-effect="non-scaling-stroke"  x="-540" y="-540" rx="0" ry="0" width="1080" height="1080" />
</g>
<g transform="matrix(1 0 0 1 539.9 546.48)"  >
<path style="stroke: rgb(0,0,0); stroke-opacity: 0; stroke-width: 1; stroke-dasharray: none; stroke-linecap: butt; stroke-dashoffset: 0; stroke-linejoin: miter; stroke-miterlimit: 4; fill: rgb(65,64,66); fill-rule: nonzero; opacity: 1;" vector-effect="non-scaling-stroke"  transform=" translate(-297.54, -332.92)" d="M 359.763 265.939 C 341.957 255.46900000000002 322.98299999999995 248.282 302.19 247.26000000000002 C 280.599 246.20000000000002 260.624 252.39600000000002 241.772 262.476 C 210.786 279.042 185.783 302.685 163.22199999999998 329.201 C 161.06799999999998 331.733 160.76399999999998 333.749 163.034 336.43300000000005 C 183.37699999999998 360.47700000000003 205.903 382.05600000000004 232.995 398.45000000000005 C 252.82 410.44800000000004 273.995 418.35600000000005 294.434 418.70700000000005 C 314.83000000000004 418.72100000000006 335.46500000000003 412.99100000000004 352.244 404.07200000000006 C 383.91600000000005 387.24100000000004 409.199 363.0060000000001 432.12300000000005 335.9440000000001 C 433.88300000000004 333.86800000000005 434.23600000000005 332.38900000000007 432.31200000000007 330.11300000000006 C 411.259 305.172 388.114 282.609 359.763 265.939 z M 296.52 404.132 C 257.06399999999996 403.673 225.82599999999996 371.166 226.21799999999996 330.981 C 226.58999999999997 292.954 259.453 261.043 297.87499999999994 261.398 C 301.74799999999993 261.435 305.54599999999994 261.79400000000004 309.24799999999993 262.43100000000004 C 300.89099999999996 268.94100000000003 295.5079999999999 279.093 295.5079999999999 290.511 C 295.5079999999999 310.16 311.4389999999999 326.09200000000004 331.08899999999994 326.09200000000004 C 345.20899999999995 326.09200000000004 357.40799999999996 317.86600000000004 363.1569999999999 305.94700000000006 C 366.5709999999999 314.35900000000004 368.4289999999999 323.55100000000004 368.3519999999999 333.1700000000001 C 368.035 372.717 335.773 404.59 296.52 404.132 z" stroke-linecap="round" />
</g>
</svg>