<?xml version="1.0" encoding="UTF-8"?>
<svg id="Layer_1" xmlns="http://www.w3.org/2000/svg" viewBox="0 0 573.27 207.68">
  <defs>
    <style>
      .cls-1 {
        fill: #7fc574;
      }

      .cls-2 {
        stroke: #80c67d;
      }

      .cls-2, .cls-3, .cls-4, .cls-5, .cls-6, .cls-7, .cls-8, .cls-9, .cls-10, .cls-11, .cls-12, .cls-13, .cls-14, .cls-15, .cls-16, .cls-17, .cls-18, .cls-19, .cls-20, .cls-21, .cls-22, .cls-23, .cls-24, .cls-25, .cls-26, .cls-27 {
        fill: none;
        stroke-width: 2px;
      }

      .cls-28 {
        fill: #9acf8b;
      }

      .cls-29 {
        font-size: 88.55px;
      }

      .cls-29, .cls-30 {
        font-family: F37Ginger, 'F37 Ginger';
      }

      .cls-30 {
        font-size: 92.43px;
      }

      .cls-31 {
        fill: #7873b6;
      }

      .cls-3 {
        stroke: #b1d342;
      }

      .cls-32 {
        fill: #80c788;
      }

      .cls-4 {
        stroke: #5e8ac7;
      }

      .cls-5 {
        stroke: #4ac1c0;
      }

      .cls-6 {
        stroke: #2bb8eb;
      }

      .cls-7 {
        stroke: #91c95a;
      }

      .cls-33 {
        fill: #91d5dd;
      }

      .cls-34 {
        fill: #3cc6ee;
      }

      .cls-8 {
        stroke: #80c893;
      }

      .cls-35 {
        fill: #6fc59b;
      }

      .cls-9 {
        stroke: #98cc6c;
      }

      .cls-36 {
        fill: #8368ae;
      }

      .cls-10 {
        stroke: #add255;
      }

      .cls-11 {
        stroke: #59c3b4;
      }

      .cls-37 {
        letter-spacing: 0em;
      }

      .cls-37, .cls-38, .cls-39, .cls-40 {
        fill: #424142;
      }

      .cls-12 {
        stroke: #74ae96;
      }

      .cls-13 {
        stroke: #6db0a9;
      }

      .cls-14 {
        stroke: #94d2b6;
      }

      .cls-15 {
        stroke: #90cb79;
      }

      .cls-41 {
        fill: #aad042;
      }

      .cls-42 {
        fill: #b8d540;
      }

      .cls-38 {
        letter-spacing: -.05em;
      }

      .cls-16 {
        stroke: #a5cf5b;
      }

      .cls-43 {
        fill: #42a1d9;
      }

      .cls-44 {
        fill: #b1d464;
      }

      .cls-17 {
        stroke: #a7d167;
      }

      .cls-39 {
        letter-spacing: 0em;
      }

      .cls-45 {
        fill: #88c765;
      }

      .cls-18 {
        stroke: #4db5b9;
      }

      .cls-19 {
        stroke: #59c4c3;
      }

      .cls-20 {
        stroke: #77c481;
      }

      .cls-21 {
        stroke: #7eccbc;
      }

      .cls-22 {
        stroke: #89c86c;
      }

      .cls-46 {
        fill: #99cb50;
      }

      .cls-23 {
        stroke: #97ca55;
      }

      .cls-24 {
        stroke: #6584c3;
      }

      .cls-25 {
        stroke: #97cc76;
      }

      .cls-47 {
        letter-spacing: -.02em;
      }

      .cls-47, .cls-48 {
        fill: #78963c;
      }

      .cls-26 {
        stroke: #9fcd54;
      }

      .cls-27 {
        stroke: #97b495;
      }
    </style>
  </defs>
  <text class="cls-30" transform="translate(0 80.43) scale(1.07 1)"><tspan class="cls-40" x="0" y="0">Liv</tspan><tspan class="cls-48" x="122.76" y="0">in</tspan><tspan class="cls-40" x="200.07" y="0">g</tspan></text>
  <text class="cls-29" transform="translate(115.05 184.46) scale(1.12 1)"><tspan class="cls-48" x="0" y="0">Ou</tspan><tspan class="cls-47" x="125.09" y="0">t</tspan><tspan class="cls-40" x="154.71" y="0">doo</tspan><tspan class="cls-39" x="312.78" y="0">r</tspan><tspan class="cls-37" x="345.82" y="0">s</tspan><tspan class="cls-38" x="384.13" y="0">.</tspan></text>
  <g>
    <g>
      <path class="cls-3" d="M324.45,26.67c-1.4.14-2.22.68-2.46,1.61-.99,3.8-2.74,7.23-5.26,10.29" vector-effect="non-scaling-stroke"/>
      <path class="cls-23" d="M316.74,38.56l-8.58-2.51" vector-effect="non-scaling-stroke"/>
      <path class="cls-17" d="M317.92,47.43l-7.25-1.79" vector-effect="non-scaling-stroke"/>
      <path class="cls-26" d="M310.67,45.65l6.07-7.08" vector-effect="non-scaling-stroke"/>
      <path class="cls-15" d="M310.67,45.65c-2.79,3.03-5.38,6.17-7.75,9.4-3.41,4.66-5.57,9.6-6.46,14.83" vector-effect="non-scaling-stroke"/>
      <path class="cls-20" d="M296.47,69.88l-4.98-.66" vector-effect="non-scaling-stroke"/>
      <path class="cls-12" d="M291.49,69.22c-.11-5.55,1.16-11.03,3.82-16.45" vector-effect="non-scaling-stroke"/>
      <path class="cls-14" d="M299.77,81.48c-1-.06-2,.03-3,.25" vector-effect="non-scaling-stroke"/>
      <path class="cls-8" d="M296.77,81.73c-.54-3.95-.64-7.9-.3-11.85" vector-effect="non-scaling-stroke"/>
      <path class="cls-21" d="M296.77,81.73c1.19,5,3,10.02,5.41,15.05" vector-effect="non-scaling-stroke"/>
      <path class="cls-19" d="M300.4,94.8l-2.11-3.54" vector-effect="non-scaling-stroke"/>
      <path class="cls-5" d="M298.29,91.26c-3.4-5.94-5.59-12.07-6.59-18.38" vector-effect="non-scaling-stroke"/>
      <path class="cls-18" d="M291.49,69.22l.22,3.66" vector-effect="non-scaling-stroke"/>
      <path class="cls-4" d="M291.7,72.88l-11.36-.19" vector-effect="non-scaling-stroke"/>
      <path class="cls-6" d="M298.29,91.26l-3.04-4.04c-.09-.13-.24-.19-.44-.19h-8.16" vector-effect="non-scaling-stroke"/>
      <path class="cls-10" d="M341.7,51.29l-4.48-.49c-.2-.02-.35.03-.47.15-.68.74-1.39,1.47-2.13,2.18-.74.7-1.54,1.39-2.4,2.06-2.11,1.64-4.24,3.28-6.37,4.92" vector-effect="non-scaling-stroke"/>
      <path class="cls-7" d="M325.84,60.11l-8.19-1.33" vector-effect="non-scaling-stroke"/>
      <path class="cls-25" d="M319.84,71.89l-4.72-2.11" vector-effect="non-scaling-stroke"/>
      <path class="cls-9" d="M315.13,69.78c3.18-3.48,6.75-6.7,10.71-9.67" vector-effect="non-scaling-stroke"/>
      <path class="cls-2" d="M315.13,69.78c-1.17,1.53-2.63,3.09-3.58,4.54-2.53,3.85-4.08,7.9-4.64,12.16-.11.84-.15,2.6-.11,5.28.02,1.75-.05,3.5-.22,5.27" vector-effect="non-scaling-stroke"/>
      <path class="cls-16" d="M350.56,63.39l-1.04.21c-.18.04-.32.12-.39.26-1.71,2.78-4.2,5.09-7.49,6.94-2.39,1.35-5.22,2.82-8.48,4.41-2.27,1.11-4.72,2.54-7.03,3.84" vector-effect="non-scaling-stroke"/>
      <path class="cls-22" d="M326.14,79.05l-3.05,1.82c-.16.09-.31.09-.47,0l-3.14-1.97" vector-effect="non-scaling-stroke"/>
      <path class="cls-27" d="M343.1,74.52l-13.55,6.52" vector-effect="non-scaling-stroke"/>
      <path class="cls-25" d="M329.55,81.04l-3.41-1.99" vector-effect="non-scaling-stroke"/>
      <path class="cls-11" d="M329.38,81.19c-2.91,1.49-5.28,2.9-7.1,4.24-4.05,2.98-6.93,6.63-8.62,10.96" vector-effect="non-scaling-stroke"/>
      <path class="cls-24" d="M336.37,87.52l-6.99-6.33" vector-effect="non-scaling-stroke"/>
      <path class="cls-13" d="M329.38,81.19l.17-.15" vector-effect="non-scaling-stroke"/>
    </g>
    <path class="cls-41" d="M324.45,26.67c-1.4.14-2.22.68-2.46,1.61-.99,3.8-2.74,7.23-5.26,10.29l-8.58-2.51c3.79-4.11,6.48-6.87,9.04-10.81,1.35-2.07,1.95-4.25,1.8-6.54-.01-.16.04-.17.17-.04,2.35,2.45,4.11,5.12,5.29,8.02Z"/>
    <path class="cls-42" d="M324.45,26.67c1.3,3.69,1.25,7.27-.15,10.72-1.36,3.34-3.49,6.69-6.38,10.05l-7.25-1.79,6.07-7.08c2.52-3.06,4.27-6.49,5.26-10.29.24-.93,1.06-1.46,2.46-1.61Z"/>
    <path class="cls-45" d="M308.16,36.05l8.58,2.51-6.07,7.08c-2.79,3.03-5.38,6.17-7.75,9.4-3.41,4.66-5.57,9.6-6.46,14.83l-4.98-.66c-.11-5.55,1.16-11.03,3.82-16.45,3.28-5.88,7.56-11.45,12.85-16.72Z"/>
    <path class="cls-41" d="M341.7,51.29l-4.48-.49c-.2-.02-.35.03-.47.15-.68.74-1.39,1.47-2.13,2.18-.74.7-1.54,1.39-2.4,2.06-2.11,1.64-4.24,3.28-6.37,4.92l-8.19-1.33c2.4-1.97,4.03-3.25,4.89-3.83,2.8-1.89,6.59-4.53,11.38-7.92,2.99-2.12,5.02-4.54,6.09-7.26.06-.14.12-.14.19,0,1.99,3.4,2.8,7.82,1.49,11.53Z"/>
    <path class="cls-28" d="M317.92,47.43c-6.96,8.31-12.7,14.65-16.06,22.72-1.46,3.5-2.16,7.28-2.1,11.33-1-.06-2,.03-3,.25-.54-3.95-.64-7.9-.3-11.85.89-5.23,3.05-10.17,6.46-14.83,2.37-3.24,4.95-6.37,7.75-9.4l7.25,1.79Z"/>
    <path class="cls-44" d="M341.7,51.29c-1.74,4.71-6.07,8.46-10.64,11.8-3.89,2.84-7.62,5.77-11.21,8.8l-4.72-2.11c3.18-3.48,6.75-6.7,10.71-9.67,2.13-1.64,4.26-3.28,6.37-4.92.86-.67,1.67-1.36,2.4-2.06.74-.71,1.45-1.44,2.13-2.18.11-.12.27-.17.47-.15l4.48.49Z"/>
    <path class="cls-31" d="M295.31,52.77c-2.66,5.41-3.93,10.9-3.82,16.45l.22,3.66-11.36-.19c.02-8.27,5.74-15.49,14.96-19.92Z"/>
    <path class="cls-1" d="M325.84,60.11c-3.96,2.97-7.53,6.19-10.71,9.67-1.17,1.53-2.63,3.09-3.58,4.54-2.53,3.85-4.08,7.9-4.64,12.16-.11.84-.15,2.6-.11,5.28.02,1.75-.05,3.5-.22,5.27-.92-2.88-1.55-5.74-1.87-8.57-1.3-11.44,3.01-21.33,12.94-29.68l8.19,1.33Z"/>
    <path class="cls-46" d="M350.56,63.39l-1.04.21c-.18.04-.32.12-.39.26-1.71,2.78-4.2,5.09-7.49,6.94-2.39,1.35-5.22,2.82-8.48,4.41-2.27,1.11-4.72,2.54-7.03,3.84l-3.05,1.82c-.16.09-.31.09-.47,0l-3.14-1.97c4.26-4.14,9.71-7.29,15.83-9.75,4.59-1.84,8.18-3.45,10.79-4.82,1.72-.91,3.06-2.13,4.02-3.65.12-.19.19-.18.21.03l.24,2.68Z"/>
    <path class="cls-44" d="M350.56,63.39c.18,2.86-.83,5.44-3.03,7.75-1.25,1.32-2.73,2.45-4.43,3.39l-13.55,6.52-3.41-1.99c2.31-1.31,4.76-2.74,7.03-3.84,3.26-1.59,6.08-3.06,8.48-4.41,3.28-1.85,5.78-4.16,7.49-6.94.08-.13.21-.22.39-.26l1.04-.21Z"/>
    <path class="cls-35" d="M296.47,69.88c-.34,3.96-.24,7.91.3,11.85,1.19,5,3,10.02,5.41,15.05l-1.77-1.97-2.11-3.54c-3.4-5.94-5.59-12.07-6.59-18.38l-.22-3.66,4.98.66Z"/>
    <path class="cls-32" d="M319.84,71.89c-6.65,5.66-10.48,12.1-11.49,19.31-.57,4.05-.29,8.37.84,12.97,0,.02,0,.04-.04.04,0,0-.02,0-.02,0-.02,0-.02,0-.02-.01l-2.53-7.18c.17-1.77.24-3.53.22-5.27-.04-2.68,0-4.44.11-5.28.56-4.25,2.11-8.3,4.64-12.16.95-1.45,2.4-3.01,3.58-4.54l4.72,2.11Z"/>
    <path class="cls-43" d="M291.7,72.88c1,6.31,3.19,12.44,6.59,18.38l-3.04-4.04c-.09-.13-.24-.19-.44-.19h-8.16c-4.22-4.25-6.32-9.03-6.31-14.34l11.36.19Z"/>
    <path class="cls-36" d="M343.1,74.52c-.45,4.88-2.69,9.22-6.73,13l-6.99-6.33.17-.15,13.55-6.52Z"/>
    <path class="cls-32" d="M319.48,78.89l3.14,1.97c.16.1.31.1.47,0l3.05-1.82,3.41,1.99-.17.15c-2.91,1.49-5.28,2.9-7.1,4.24-4.05,2.98-6.93,6.63-8.62,10.96-.68,1.95-1.1,3.35-1.25,4.19-.43,2.4-.68,3.74-.73,4.02-.08.44-.13.44-.15,0-.13-3.23-.06-6.37.21-9.39.19-2.21.81-4.66,1.85-7.35,1.26-3.25,3.22-6.24,5.89-8.96Z"/>
    <path class="cls-33" d="M299.77,81.48c.01,2.91.31,5.49.9,7.74,1.14,4.39,2.84,8.54,5.08,12.44.37.65.3.68-.23.09-1.36-1.53-2.47-3.19-3.34-4.98-2.41-5.03-4.21-10.05-5.41-15.05,1-.22,2-.3,3-.25Z"/>
    <path class="cls-43" d="M329.38,81.19l6.99,6.33c-5.78,5.33-13.35,8.29-22.72,8.87,1.7-4.33,4.57-7.98,8.62-10.96,1.82-1.34,4.19-2.75,7.1-4.24Z"/>
    <path class="cls-34" d="M298.29,91.26l2.11,3.54c-5.58-1.65-10.17-4.24-13.75-7.78h8.16c.2,0,.34.07.44.2l3.04,4.04Z"/>
  </g>
</svg>